HIERARCHY
ROOT Hips
{
	OFFSET -0.001795 -0.223333 0.028219
	CHANNELS 6 Xposition Yposition Zposition Zrotation Yrotation Xrotation 
	JOINT LeftUpLeg
	{
		OFFSET 0.069520 -0.091406 -0.006815
		CHANNELS 3 Zrotation Yrotation Xrotation
		JOINT LeftLeg
		{
			OFFSET 0.034277 -0.375199 -0.004496
			CHANNELS 3 Zrotation Yrotation Xrotation
			JOINT LeftFoot
			{
				OFFSET -0.013596 -0.397961 -0.043693
				CHANNELS 3 Zrotation Yrotation Xrotation
				JOINT LeftToe
				{
					OFFSET 0.026358 -0.055791 0.119288
					CHANNELS 3 Zrotation Yrotation Xrotation
					End Site
					{
						OFFSET 0.000000 0.000000 0.000000
					}
				}
			}
		}
	}
	JOINT RightUpLeg
	{
		OFFSET -0.067670 -0.090522 -0.004320
		CHANNELS 3 Zrotation Yrotation Xrotation
		JOINT RightLeg
		{
			OFFSET -0.038290 -0.382569 -0.008850
			CHANNELS 3 Zrotation Yrotation Xrotation
			JOINT RightFoot
			{
				OFFSET 0.015774 -0.398415 -0.042312
				CHANNELS 3 Zrotation Yrotation Xrotation
				JOINT RightToe
				{
					OFFSET -0.025372 -0.048144 0.123348
					CHANNELS 3 Zrotation Yrotation Xrotation
					End Site
					{
						OFFSET 0.000000 0.000000 0.000000
					}
				}
			}
		}
	}
	JOINT Spine
	{
		OFFSET -0.002533 0.108963 -0.026696
		CHANNELS 3 Zrotation Yrotation Xrotation
		JOINT Spine1
		{
			OFFSET 0.005487 0.135180 0.001092
			CHANNELS 3 Zrotation Yrotation Xrotation
			JOINT Spine2
			{
				OFFSET 0.001457 0.052922 0.025425
				CHANNELS 3 Zrotation Yrotation Xrotation
				JOINT Neck
				{
					OFFSET -0.002778 0.213870 -0.042857
					CHANNELS 3 Zrotation Yrotation Xrotation
					JOINT Head
					{
						OFFSET 0.005152 0.064970 0.051349
						CHANNELS 3 Zrotation Yrotation Xrotation
						End Site
						{
							OFFSET 0.000000 0.000000 0.000000
						}
					}
				}
				JOINT LeftShoulder
				{
					OFFSET 0.078845 0.121749 -0.034090
					CHANNELS 3 Zrotation Yrotation Xrotation
					JOINT LeftArm
					{
						OFFSET 0.090977 0.030469 -0.008868
						CHANNELS 3 Zrotation Yrotation Xrotation
						JOINT LeftForeArm
						{
							OFFSET 0.259612 -0.012772 -0.027456
							CHANNELS 3 Zrotation Yrotation Xrotation
							JOINT LeftHand
							{
								OFFSET 0.249234 0.008986 -0.001171
								CHANNELS 3 Zrotation Yrotation Xrotation
								End Site
								{
									OFFSET 0.000000 0.000000 0.000000
								}
							}
						}
					}
				}
				JOINT RightShoulder
				{
					OFFSET -0.081759 0.118833 -0.038615
					CHANNELS 3 Zrotation Yrotation Xrotation
					JOINT RightArm
					{
						OFFSET -0.096012 0.032551 -0.009143
						CHANNELS 3 Zrotation Yrotation Xrotation
						JOINT RightForeArm
						{
							OFFSET -0.253742 -0.013329 -0.021401
							CHANNELS 3 Zrotation Yrotation Xrotation
							JOINT RightHand
							{
								OFFSET -0.255298 0.007772 -0.005559
								CHANNELS 3 Zrotation Yrotation Xrotation
								End Site
								{
									OFFSET 0.000000 0.000000 0.000000
								}
							}
						}
					}
				}
			}
		}
	}
}
MOTION
Frames: 17
Frame Time: 0.050000
-0.648170 0.920403 -1.329486 -13.813599 53.367198 -8.183315 22.541273 -4.442238 -6.058547 -18.949780 -0.838901 14.287326 80.227606 38.305366 77.705695 0.000000 0.000000 0.000000 -12.728363 -5.545480 -20.401122 -1.442731 -1.654650 17.716306 -4.046078 -4.718227 25.547384 0.000000 0.000000 0.000000 2.943208 -0.404859 5.398586 -2.796922 2.129837 -24.239609 2.393235 13.688036 30.644040 14.531215 2.706564 -32.271224 0.000000 0.000000 0.000000 -5.022972 -7.239629 -3.966784 -51.369445 -4.983654 -7.199073 -84.441794 -57.894437 34.553665 0.000000 0.000000 0.000000 8.806965 -2.945799 3.255262 41.133450 29.180856 6.513873 -118.418921 58.136824 -53.514194 0.000000 0.000000 0.000000 
-0.641501 0.925974 -1.369219 -13.638323 56.225977 -7.628999 19.835640 -3.844082 -6.807926 -17.083839 -1.092901 13.545834 78.423732 40.070024 71.853730 0.000000 0.000000 0.000000 -11.484983 -4.508759 -17.161788 0.720911 -3.977118 21.993388 -5.082349 -6.587946 19.277850 0.000000 0.000000 0.000000 3.888763 -0.540403 5.815035 -2.387132 2.102348 -24.488286 -0.157407 15.964444 29.867714 16.920407 2.075763 -32.845241 0.000000 0.000000 0.000000 -5.921838 -9.346795 -4.389091 -46.276240 -3.381486 -5.931105 -71.606221 -61.230968 28.627969 0.000000 0.000000 0.000000 12.011509 -3.964280 4.813980 32.722091 33.975363 5.518469 -106.174074 49.919360 -35.288960 0.000000 0.000000 0.000000 
-0.633781 0.928160 -1.409408 -11.985364 59.636501 -6.813503 17.211159 -3.352594 -6.348099 -15.247919 -1.277727 12.838754 73.793343 41.152225 64.199503 0.000000 0.000000 0.000000 -12.309780 -4.589892 -14.321176 1.143760 -4.901586 22.917929 -5.071792 -6.333467 19.162685 0.000000 0.000000 0.000000 3.995712 -0.519858 5.546531 -5.103167 2.572819 -22.852200 0.515882 13.223098 27.854788 15.347690 2.774713 -32.660998 0.000000 0.000000 0.000000 -5.750886 -8.466952 -4.389190 -44.772730 -4.847836 -5.087951 -52.944030 -63.485535 19.226024 0.000000 0.000000 0.000000 10.429943 -2.835117 4.624662 26.793231 34.726739 4.295647 -91.563112 41.993621 -19.826851 0.000000 0.000000 0.000000 
-0.626200 0.927718 -1.450805 -9.997153 62.463603 -4.865386 14.050694 -2.657940 -8.081593 -13.417468 -1.520122 14.112965 70.516191 41.861928 58.520753 0.000000 0.000000 0.000000 -13.284890 -4.901888 -12.442374 0.242303 -4.868480 22.981104 -2.984875 -3.061599 17.724898 0.000000 0.000000 0.000000 3.618899 -0.683561 7.068069 -3.045891 2.023186 -26.075993 -1.115910 14.085312 29.564800 16.197968 3.145453 -34.495671 0.000000 0.000000 0.000000 -5.288184 -8.881764 -4.627750 -40.724375 -6.770691 -3.596349 -38.894589 -61.565775 9.781527 0.000000 0.000000 0.000000 8.884291 -2.585198 4.505260 20.008394 33.959371 2.761395 -81.110867 36.177464 -11.476281 0.000000 0.000000 0.000000 
-0.618698 0.926803 -1.492560 -9.730712 62.983297 -4.319000 12.393800 -2.325187 -9.833787 -12.079123 -1.689778 15.884655 68.857436 42.420923 56.225466 0.000000 0.000000 0.000000 -11.389143 -4.235440 -13.000651 -0.321461 -5.520046 25.137249 7.439154 11.662469 14.233677 0.000000 0.000000 0.000000 4.775990 -0.718912 6.322673 -2.644327 2.154936 -24.250006 -0.941019 15.248953 28.223805 14.258059 4.284672 -35.079592 0.000000 0.000000 0.000000 -3.758439 -8.598942 -3.711966 -38.936566 -8.806530 -3.063525 -20.382170 -60.247527 -0.731711 0.000000 0.000000 0.000000 6.693352 -2.441859 3.523875 15.429426 30.761163 1.492758 -70.660495 32.513202 -6.621412 0.000000 0.000000 0.000000 
-0.610906 0.926887 -1.532439 -8.127738 62.830521 -2.983288 11.341403 -2.130310 -10.299879 -8.693963 -1.675009 15.946954 63.772529 40.086718 54.726830 0.000000 0.000000 0.000000 -10.358852 -3.915813 -13.654819 0.936268 -6.608946 26.286102 15.591358 21.823632 13.800323 0.000000 0.000000 0.000000 6.161814 -1.041604 7.232601 -2.658759 1.915706 -26.289727 -0.477120 14.669897 29.105552 13.086746 4.747346 -34.068615 0.000000 0.000000 0.000000 -2.963091 -6.427497 -3.842968 -36.345246 -8.927338 -2.588286 -5.356964 -52.524746 -7.409243 0.000000 0.000000 0.000000 3.287673 -1.625199 2.049080 15.465434 30.371408 1.819408 -62.596740 32.722957 -5.023990 0.000000 0.000000 0.000000 
-0.601702 0.926490 -1.570802 -4.693923 61.837154 0.657277 9.282496 -1.826695 -10.811453 -6.120631 -1.681968 15.625515 59.504316 38.657607 53.440621 0.000000 0.000000 0.000000 -8.540821 -2.973897 -13.134934 3.686787 -7.134191 24.078116 6.108287 10.543578 8.380018 0.000000 0.000000 0.000000 6.929276 -1.193803 7.270111 -2.416073 1.941644 -25.833099 -0.881636 15.821322 27.736877 14.408952 3.709245 -31.525592 0.000000 0.000000 0.000000 -2.758888 -6.366998 -3.632276 -32.366858 -6.837660 -2.224250 5.968603 -44.235429 -10.152368 0.000000 0.000000 0.000000 4.374266 -1.561598 2.718908 13.292938 30.860371 1.332124 -57.920386 32.723665 -5.055548 0.000000 0.000000 0.000000 
-0.591710 0.923670 -1.609608 -1.675049 60.965652 3.659558 7.240643 -1.549363 -10.773462 -6.415687 -1.451358 14.224398 59.469170 39.213249 52.717960 0.000000 0.000000 0.000000 -8.809077 -2.825538 -12.291934 5.332119 -6.653533 21.005917 -2.769630 -5.580114 5.214296 0.000000 0.000000 0.000000 8.109662 -1.405145 7.155715 -3.312353 2.005041 -25.616925 0.539087 16.225751 26.963644 11.274410 4.894781 -29.742105 0.000000 0.000000 0.000000 -2.393694 -4.735464 -3.816393 -29.671043 -6.163742 -2.007382 13.487276 -33.923759 -9.731699 0.000000 0.000000 0.000000 4.424986 -2.087367 2.363474 13.171225 32.204667 1.500114 -53.655545 32.166392 -4.338221 0.000000 0.000000 0.000000 
-0.582969 0.918873 -1.650105 1.072227 60.272671 6.003681 5.994067 -1.389617 -10.509641 -10.235462 -1.265628 12.262740 63.319457 41.506502 53.104324 0.000000 0.000000 0.000000 -10.828764 -3.467781 -11.822856 3.919146 -5.286662 19.579819 -4.069624 -9.690412 2.288633 0.000000 0.000000 0.000000 9.967457 -2.124435 8.798074 -4.043624 1.898112 -27.017423 1.660505 18.944368 27.602784 10.262408 5.899859 -32.102742 0.000000 0.000000 0.000000 -1.625191 -3.326429 -4.086113 -26.831385 -7.725023 -1.477673 15.741497 -22.621053 -6.988445 0.000000 0.000000 0.000000 5.467166 -4.223332 1.836740 11.460546 33.430239 1.297436 -50.289364 31.628171 -3.642839 0.000000 0.000000 0.000000 
-0.576388 0.915796 -1.691964 1.256694 59.648746 5.979486 6.116292 -1.428094 -10.848108 -14.684743 -1.490147 11.949359 66.207739 44.742775 52.331120 0.000000 0.000000 0.000000 -11.047950 -3.730809 -13.232097 2.301143 -4.351017 19.483534 -7.459490 -15.937379 5.045614 0.000000 0.000000 0.000000 11.335283 -2.526746 9.108033 -3.853413 1.906565 -26.619555 2.476793 19.373629 28.035670 8.340727 6.742954 -32.675683 0.000000 0.000000 0.000000 -0.853063 -1.277069 -4.227243 -26.228236 -6.919835 -1.622338 19.839408 -19.301056 -7.314812 0.000000 0.000000 0.000000 4.261664 -3.545246 1.530178 12.648296 33.646784 1.786244 -45.832016 32.158365 -3.324293 0.000000 0.000000 0.000000 
-0.571143 0.914607 -1.733683 2.570310 58.455358 6.577212 6.643255 -1.522834 -11.392363 -18.096517 -1.715031 13.174126 63.711015 45.912969 50.156213 0.000000 0.000000 0.000000 -13.182971 -4.832250 -14.796379 1.029264 -3.598755 19.647894 -8.649281 -15.919596 9.584636 0.000000 0.000000 0.000000 11.795544 -2.949192 10.430500 -3.495757 1.890483 -26.489578 3.247959 20.603561 27.590603 7.075319 7.092486 -31.950284 0.000000 0.000000 0.000000 -0.157989 0.519195 -4.286978 -25.512928 -6.780932 -1.642492 20.745255 -16.520264 -6.726298 0.000000 0.000000 0.000000 2.508126 -2.560850 1.166834 13.646176 33.732187 2.415615 -40.400649 32.406459 -2.864718 0.000000 0.000000 0.000000 
-0.565891 0.914435 -1.774245 3.825314 58.606973 8.222579 8.416732 -1.851174 -12.588802 -17.179318 -1.658439 15.078131 44.027167 41.430253 36.169304 0.000000 0.000000 0.000000 -16.269984 -6.514306 -15.750236 -0.064104 -2.810265 18.819257 -6.783418 -11.410721 11.087807 0.000000 0.000000 0.000000 11.968029 -2.773100 9.440975 -3.636224 2.045984 -25.174228 3.676691 20.294033 27.039950 4.560763 7.918699 -31.770806 0.000000 0.000000 0.000000 0.601129 2.119266 -4.185926 -25.792170 -6.291731 -1.906713 22.649388 -17.359458 -7.593026 0.000000 0.000000 0.000000 1.492339 -1.811598 1.042942 14.994928 32.597053 2.603741 -35.139372 35.178113 -2.698449 0.000000 0.000000 0.000000 
-0.560092 0.911922 -1.812012 3.325773 57.790870 8.025645 10.795553 -2.133951 -12.669481 -16.306238 -1.560687 16.777100 19.923231 29.312625 17.179960 0.000000 0.000000 0.000000 -17.944901 -7.930304 -18.047150 -1.173066 -2.363950 19.519936 -5.882450 -8.644644 15.109155 0.000000 0.000000 0.000000 11.352745 -2.550403 9.196147 -3.230966 2.002068 -25.574996 4.490431 20.693114 27.395068 2.428384 8.613753 -30.824893 0.000000 0.000000 0.000000 -0.621160 3.012407 -5.484087 -25.052205 -4.260853 -1.976331 25.109082 -20.222333 -9.180697 0.000000 0.000000 0.000000 3.032233 -0.905233 2.404472 14.822866 32.791203 2.238901 -32.949036 41.299038 -3.514520 0.000000 0.000000 0.000000 
-0.553267 0.905533 -1.847149 2.817654 57.360783 7.302446 14.694047 -2.661158 -11.544901 -13.727615 -1.618323 20.006310 -3.202485 -9.701593 -1.382017 0.000000 0.000000 0.000000 -20.269666 -9.178828 -18.317773 -1.287678 -1.882044 18.181334 -5.219711 -6.738962 21.031366 0.000000 0.000000 0.000000 11.282806 -2.037440 7.002003 -3.420143 2.240303 -23.108649 3.381188 21.021710 28.254905 4.911715 7.911433 -32.349949 0.000000 0.000000 0.000000 0.983012 3.474908 -4.340660 -25.316486 -4.070965 -2.239959 32.645580 -22.595408 -13.224025 0.000000 0.000000 0.000000 3.576730 -0.838509 2.761234 19.627374 32.021218 2.978368 -35.043704 48.877437 -4.836426 0.000000 0.000000 0.000000 
-0.545358 0.897055 -1.880893 0.920172 56.501555 3.900468 17.289741 -3.128627 -7.594804 -8.916115 -1.800056 20.610274 -3.928647 -36.477672 -14.616297 0.000000 0.000000 0.000000 -20.643486 -9.166514 -17.951565 -2.605917 -1.298650 17.916018 -3.865184 -4.671348 26.532573 0.000000 0.000000 0.000000 9.810901 -2.008728 8.868525 -4.101385 2.186302 -25.074768 5.940031 21.295798 30.013475 5.865031 7.758463 -32.001122 0.000000 0.000000 0.000000 0.997028 3.899159 -4.740659 -25.175918 -5.575792 -1.897006 38.575263 -21.816603 -15.592839 0.000000 0.000000 0.000000 6.385150 -2.144300 3.535020 23.394479 31.886575 3.160450 -35.603606 59.668798 -6.284938 0.000000 0.000000 0.000000 
-0.536793 0.889647 -1.914676 -1.355329 55.578680 1.303825 18.048430 -3.316857 -5.822000 -8.700989 -1.547443 19.533028 -0.115082 -40.750607 -21.829975 0.000000 0.000000 0.000000 -21.229801 -9.410231 -18.277349 -3.206264 -0.952910 17.672465 -0.795226 -1.268283 30.355181 0.000000 0.000000 0.000000 9.841345 -1.752271 7.802551 -4.065729 2.363458 -23.429144 5.475237 20.723456 31.278077 7.397798 7.243473 -34.263847 0.000000 0.000000 0.000000 1.212573 4.237822 -4.424028 -23.953602 -6.244868 -1.757999 41.612307 -18.574164 -15.214287 0.000000 0.000000 0.000000 9.071428 -1.967908 5.005754 27.199483 31.661255 3.270735 -40.404451 67.017816 -10.377372 0.000000 0.000000 0.000000 
-0.528326 0.886620 -1.947679 -2.743534 54.879235 -0.465116 18.029998 -3.356591 -4.333310 -9.960347 -1.169499 17.704090 1.201031 -41.707408 -24.210377 0.000000 0.000000 0.000000 -21.913573 -9.698732 -18.326338 -3.902203 -0.612657 17.335545 1.311473 0.820198 31.965293 0.000000 0.000000 0.000000 7.636542 -1.285978 7.633552 -4.165365 2.218690 -25.318377 7.209133 20.604801 34.033681 7.953282 7.291794 -34.359585 0.000000 0.000000 0.000000 1.110671 2.726000 -4.241842 -21.583524 -6.156284 -1.328528 46.723953 -16.711927 -16.690267 0.000000 0.000000 0.000000 12.544036 -4.086547 5.784877 31.122592 29.455995 2.364239 -41.917006 76.419369 -12.817507 0.000000 0.000000 0.000000 
